<?xml version="1.0" encoding="utf-8"?>
<!-- Generator: Adobe Illustrator 21.0.0, SVG Export Plug-In . SVG Version: 6.00 Build 0)  -->
<!DOCTYPE svg PUBLIC "-//W3C//DTD SVG 1.1//EN" "http://www.w3.org/Graphics/SVG/1.1/DTD/svg11.dtd">
<svg version="1.1" id="Layer_1" xmlns="http://www.w3.org/2000/svg" xmlns:xlink="http://www.w3.org/1999/xlink" x="0px" y="0px"
	 viewBox="0 0 70 50" style="enable-background:new 0 0 70 50;" xml:space="preserve">
<style type="text/css">
	.st0{fill:#756856;}
	.st1{fill:#E8D2C1;}
	.st2{fill:#9D73C7;}
	.st3{fill:#CEB7A7;}
	.st4{fill:#66493A;}
	.st5{fill:#0FA1D3;}
	.st6{fill:#FFFFFF;}
	.st7{fill:#87C13A;}
	.st8{fill:none;stroke:#AAAAAA;stroke-width:0.5;stroke-miterlimit:10;}
	.st9{fill:#AECC5A;}
	.st10{fill:#8B63AA;}
</style>
<g>
	<g>
		<path class="st0" d="M57.5,22.5c0-4.9,8.8-4,8.8,3c0,5-2.3,8.3,0.1,10.7C59.7,36.3,57.5,31.5,57.5,22.5z"/>
		<path class="st0" d="M48,23.6c0-5.1,3.5-9.4,8.1-9.4s8.1,4.2,8.1,9.3C64.1,31.1,56,34,56,34l0,0C56,34,48,30.8,48,23.6z"/>
		<path class="st1" d="M63.2,38.2c0,0-3.3-1.1-3.9-1.4s-0.7-6.5-0.7-6.5h-5.2c0,0,0,6.2-0.7,6.4s-3.5,1.2-3.5,1.2
			s-9.3,11.5,6.7,11.5S63.2,38.2,63.2,38.2z"/>
		<path class="st2" d="M55.9,44.6l-6.6-1.3l0-5.5c0,0-2.7,1-3.8,1.7s-2.6,4.3-3.5,10.4h28c-1-6.4-2.5-10-3.7-10.5
			c-1.1-0.5-3.7-1.5-3.7-1.5l0,5.3L55.9,44.6z"/>
		<path class="st3" d="M53.1,33l6.1,3.9c-0.4-0.2-0.5-4.7-0.5-4.7L53.1,33z"/>
		<path class="st1" d="M56.2,14.9L56.2,14.9C56.2,14.9,56.1,14.9,56.2,14.9c-0.1,0,0,0-0.1,0v0c-4.7,0.1-7.2,3.9-7.2,8.6
			c0,1.3,0.4,5.3,1.2,6.6c0.6,1,2.5,3.1,3.8,3.8c0.6,0.3,1.6,0.6,2.3,0.6c0.7,0,1.7-0.3,2.2-0.6c1.2-0.6,2.3-1.7,3.6-3.3
			c0.9-1.1,1.6-5.7,1.6-7C63.4,18.8,61,15,56.2,14.9z"/>
		<path class="st1" d="M63,24.5c0-0.8,1.2-1,1.4,0c0.3,1.2-0.5,3.3-1,4c-0.2,0.2-0.9,0.3-0.8-0.3C62.7,27,63,25.4,63,24.5z"/>
		<path class="st0" d="M63.3,23.9c0.7-6.3-3.1-9.3-7.3-9.3c-4.2,0-7.4,3.6-7.6,8.1c1.1-0.4,2.4-1.6,3.7-3.6
			C54.9,22,62.2,23.5,63.3,23.9z"/>
	</g>
	<path class="st1" d="M49.1,24.5c0-0.8-1.2-1-1.4,0c-0.3,1.2,0.5,3.3,1,4c0.2,0.2,0.9,0.3,0.8-0.3C49.4,27,49.1,25.4,49.1,24.5z"/>
</g>
<g>
	<path class="st4" d="M7.6,22.6c0-5.1,2-9.4,8.1-9.4c6.1,0,8.1,4.2,8.1,9.3c0,7.5-8.1,10.5-8.1,10.5l0,0C15.7,33,7.6,29.8,7.6,22.6z
		"/>
	<path class="st1" d="M6.3,42.3c-3.1-4.1,5-7.2,5-7.2l0.4-0.7l0.3-4.7h6.7l0.4,4.8l0.4,0.6c0,0,8.1,3,4.9,7.2S9.4,46.4,6.3,42.3z"/>
	<polygon class="st3" points="11.7,32.5 17.2,37.6 19.5,35.2 19.1,34.5 19.2,32.9 	"/>
	<path class="st1" d="M15.8,14.9L15.8,14.9C15.8,14.9,15.8,14.9,15.8,14.9c-0.1,0,0,0-0.1,0v0C11,15,8.5,18.8,8.5,23.5
		c0,1.3,0.4,5.3,1.2,6.6c0.6,1,2.5,3.1,3.8,3.8c0.6,0.3,1.6,0.6,2.3,0.6c0.7,0,1.7-0.3,2.2-0.6c1.2-0.6,2.3-1.7,3.6-3.3
		c0.9-1.1,1.5-5.7,1.5-7C23.1,18.8,20.6,15,15.8,14.9z"/>
	<path class="st1" d="M22.7,24.5c0-0.8,1.2-1,1.4,0c0.3,1.2-0.5,3.3-1,4c-0.2,0.2-0.9,0.3-0.8-0.3C22.4,27,22.7,25.4,22.7,24.5z"/>
	<path class="st1" d="M8.8,24.5c0-0.8-1.2-1-1.4,0c-0.3,1.2,0.5,3.3,1,4c0.2,0.2,0.9,0.3,0.8-0.3C9,27,8.8,25.4,8.8,24.5z"/>
	<path class="st5" d="M15.3,39.5l-4-4.4C0.5,39.2,0.8,40.4,0,50h30.6c-0.1-9.3,0.1-10.5-11-14.8L15.3,39.5z"/>
	<path class="st4" d="M23.5,21.4c-0.2-4.5-3.4-6.8-7.6-6.8c-4.2,0-7.4,3.6-7.6,8.1c0,0,0.5-1.7,2.1-4.5c0.5,0.9,3.4,1.3,5.3,1.9
		C22.5,20.1,23.5,21.4,23.5,21.4z"/>
</g>
<rect x="18.6" y="43.5" class="st6" width="6.3" height="1.4"/>
<g>
	<path class="st7" d="M37.1,0.3c-4.4,0-8,3.6-8,8s3.6,8,8,8s8-3.6,8-8S41.5,0.3,37.1,0.3z"/>
	<path class="st6" d="M37.1,12.7L37.1,12.7c-1.5,0-2.7-0.8-3.3-2.1c-0.1-0.2,0-0.5,0.2-0.6c0.2-0.1,0.5,0,0.6,0.2
		c0.4,1,1.4,1.6,2.5,1.6c1.1,0,2.1-0.6,2.5-1.6c0.1-0.2,0.4-0.3,0.6-0.2c0.2,0.1,0.3,0.4,0.2,0.6C39.8,11.9,38.5,12.7,37.1,12.7z"/>
	<g>
		<circle class="st6" cx="40" cy="6.8" r="0.7"/>
		<circle class="st6" cx="34.1" cy="6.8" r="0.7"/>
	</g>
</g>
<path class="st8" d="M42,33.5L42,33.5c1.6,0,3,1.3,3,3v3.8h-5.9v-3.8C39.1,34.8,40.4,33.5,42,33.5z"/>
<rect x="35.6" y="39.2" class="st9" width="12.5" height="10.8"/>
<rect x="35.6" y="47" class="st7" width="12.5" height="3"/>
<polygon class="st10" points="48.1,39.2 58.9,50 48.1,50 "/>
<polygon class="st3" points="49.3,40.4 49.3,43.3 53,44.1 "/>
</svg>
