<?xml version="1.0" encoding="utf-8"?>
<!-- Generator: Adobe Illustrator 18.1.1, SVG Export Plug-In . SVG Version: 6.00 Build 0)  -->
<!DOCTYPE svg PUBLIC "-//W3C//DTD SVG 1.1//EN" "http://www.w3.org/Graphics/SVG/1.1/DTD/svg11.dtd">
<svg version="1.1" id="Layer_1" xmlns="http://www.w3.org/2000/svg" xmlns:xlink="http://www.w3.org/1999/xlink" x="0px" y="0px"
	 viewBox="0 0 123 40" enable-background="new 0 0 123 40" xml:space="preserve">
<g>
	<g>
		<path fill="#12B5EA" d="M66.7,0.5C56.2-1.9,45.7,4.8,43.3,15.6c-1.2,5.5-0.7,9.9,2,14.3L42,37.4l8.4-1.6c2.3,2,4.4,2.9,7.6,3.7
			c10.6,2.5,21.1-4.3,23.5-15.1C83.9,13.7,77.3,3,66.7,0.5z M62.5,29.9c-1.5,0-2.7-1.3-2.7-2.7c0-1.5,1.2-2.7,2.7-2.7
			c1.5,0,2.7,1.3,2.7,2.7C65.2,28.7,63.9,29.9,62.5,29.9z M64.9,22.1h-4.8L59.3,9.5h6.3L64.9,22.1z M18.5,21.9c2.5,0,4.5-2,4.5-4.5
			S21,13,18.5,13C16,13,14,15,14,17.5c0,0.4,0,0.7,0.1,1.1l-6.6,4.6c-0.8-0.7-1.8-1.1-3-1.1C2,22,0,24,0,26.5C0,29,2,31,4.5,31
			c1,0,2-0.4,2.8-0.9l6.8,4.7c0,0.3-0.1,0.5-0.1,0.8c0,2.5,2,4.5,4.5,4.5c2.5,0,4.5-2,4.5-4.5c0-2.5-2-4.5-4.5-4.5
			c-1.2,0-2.3,0.5-3.1,1.2l-6.6-4.6C8.9,27.3,9,26.9,9,26.5c0-0.3,0-0.6-0.1-0.9l6.7-4.7C16.4,21.6,17.4,21.9,18.5,21.9z M120.9,16
			H99.1C98,16,97,16.8,97,17.9v2.3l13,7.1l13-7.1v-2.3C123,16.8,122,16,120.9,16z M97,22.6v11.4c0,1.1,1,1.9,2.1,1.9h21.9
			c1.1,0,2.1-0.9,2.1-1.9V22.6l-13,7.1L97,22.6z"/>
	</g>
</g>
</svg>
