<?xml version="1.0" encoding="utf-8"?>
<!-- Generator: Adobe Illustrator 18.1.1, SVG Export Plug-In . SVG Version: 6.00 Build 0)  -->
<!DOCTYPE svg PUBLIC "-//W3C//DTD SVG 1.1//EN" "http://www.w3.org/Graphics/SVG/1.1/DTD/svg11.dtd">
<svg version="1.1" id="Layer_1" xmlns="http://www.w3.org/2000/svg" xmlns:xlink="http://www.w3.org/1999/xlink" x="0px" y="0px"
	 viewBox="258 19 141 137" enable-background="new 258 19 141 137" xml:space="preserve">
<circle fill="#E57863" cx="328.6" cy="86.9" r="60.8"/>
<path fill="#DD5B4A" d="M361.3,69.6c-0.8,0.3-1.6,0.8-2.5,0.8c-3,0.8-8,0.5-10.4-1.4c-3.8-2.7-7.7-5.8-11-9.3
	c-1.6-1.9-3.3-3.8-4.7-5.8c-0.8,0.3-1.6,0.5-2.5,0.8V69c0,1.1-0.3,1.9-0.8,2.7l4.4,4.4l-7.4,7.4l-19.8-19.2
	c-0.3,0.3-0.5,0.5-1.1,0.8c-1.1,1.1-2.2,2.2-3.3,3.3c-0.8,1.4-1.6,2.5-2.2,3.8c-0.8,2.5-1.6,5.2-1.9,8c-0.5,6.3-0.5,12.9-0.3,19.2
	c0,2.5,0,4.7,0,7.1c5.5,6,30.8,34.6,34.1,39c0.5,0.5,1.1,1.1,1.6,1.9c27.2-2.2,49.5-22.3,54.7-48.7
	C379.4,89.1,370.1,79.5,361.3,69.6z"/>
<path fill="#FFFFFF" d="M328.6,123.2c-4.1,0-8.5-0.8-12.4-2.2c-9.3-3.6-16.8-10.7-20.3-19.8c-4.1-10.2-3.3-21.7,1.9-31.3
	c0.5-1.1,1.4-2.2,2.2-3.3c1.6-2.2,4.9-2.7,7.1-1.1c2.2,1.6,2.7,4.9,1.1,7.1c-0.5,0.8-1.1,1.6-1.6,2.5c-3.8,6.6-4.4,15.1-1.4,22.3
	c2.7,6.6,8,11.5,14.6,14s14.6,1.9,20.9-1.4s10.7-9.1,12.6-15.9c1.9-7.7,0.3-15.9-4.7-22.3c-1.6-2.2-1.4-5.5,0.8-7.1s5.5-1.4,7.1,0.8
	c6.9,8.8,9.3,20.3,6.6,31.3c-2.5,9.6-9.1,17.6-17.6,22.3C340.1,121.8,334.3,123.2,328.6,123.2z"/>
<path fill="#FFFFFF" d="M327.2,91c-3,0-5.5-2.2-5.5-5.2V55.5c0-2.7,2.2-5.2,5.5-5.2s5.5,2.2,5.5,5.2v30.2
	C332.7,88.8,330.2,91,327.2,91z"/>
</svg>
