<?xml version="1.0" encoding="utf-8"?>
<!-- Generator: Adobe Illustrator 19.0.0, SVG Export Plug-In . SVG Version: 6.00 Build 0)  -->
<!DOCTYPE svg PUBLIC "-//W3C//DTD SVG 1.1//EN" "http://www.w3.org/Graphics/SVG/1.1/DTD/svg11.dtd">
<svg version="1.1" id="Layer_1" xmlns="http://www.w3.org/2000/svg" xmlns:xlink="http://www.w3.org/1999/xlink" x="0px" y="0px"
	 viewBox="0 0 309.2 236.5" enable-background="new 0 0 309.2 236.5" xml:space="preserve">
<g id="XMLID_1_">
	<path id="XMLID_4_" fill="#0BA8D8" d="M106.4,62.5C48,62.5,0.7,101.2,0.7,149.1c0,18.7,7.3,36,19.6,50.2l-15,33.3l38.4-13.8
		c17.6,10.6,39.3,16.9,62.8,16.9c58.4,0,105.7-38.8,105.7-86.6C212.1,101.2,164.8,62.5,106.4,62.5z"/>
	<path id="XMLID_3_" fill="#1293C6" d="M70.3,156.3c0,0,36.5,44.8,61,76.8c21.8-4.3,41.4-13.7,55.6-27.2
		C202.8,190.7,70.3,156.3,70.3,156.3z"/>
	<path id="XMLID_2_" fill="#12B5EA" d="M181.2,0.7c70.4,0,127.4,46.7,127.4,104.4c0,22.6-8.8,43.4-23.6,60.5l18.1,40.1l-46.3-16.6
		c-21.2,12.8-47.3,20.4-75.7,20.4c-70.4,0-127.4-46.7-127.4-104.4C53.7,47.4,110.8,0.7,181.2,0.7z"/>
</g>
</svg>
