<?xml version="1.0" encoding="utf-8"?>
<!-- Generator: Adobe Illustrator 19.0.0, SVG Export Plug-In . SVG Version: 6.00 Build 0)  -->
<!DOCTYPE svg PUBLIC "-//W3C//DTD SVG 1.1//EN" "http://www.w3.org/Graphics/SVG/1.1/DTD/svg11.dtd">
<svg version="1.1" id="Layer_1" xmlns="http://www.w3.org/2000/svg" xmlns:xlink="http://www.w3.org/1999/xlink" x="0px" y="0px"
	 viewBox="0 0 317.5 222" enable-background="new 0 0 317.5 222" xml:space="preserve">
<g id="XMLID_3_">
	<g id="XMLID_10_">
		<path id="XMLID_14_" fill="#FFC73B" d="M158.3,0.1c-20,0-39.1,3.7-56.7,10.5l34.1,65.6c7.2-2.1,14.8-3.2,22.6-3.2
			c19.7,0,37.8,6.9,52,18.4L271.8,48C243,18.4,202.8,0.1,158.3,0.1z"/>
	</g>
	<g id="XMLID_7_">
		<path id="XMLID_8_" fill="#AECC5A" d="M281.8,59.3l-60.5,43c12.2,14.4,19.6,33,19.6,53.4c0,11.2-2.2,21.9-6.3,31.7
			c12.6,6.7,53.3,28.1,69.3,34c8.3-19.2,12.9-40.4,12.9-62.7C316.8,121,303.7,86.5,281.8,59.3z"/>
		<path id="XMLID_6_" fill="#FFFFFF" d="M276.1,52.6c-15.2,8.7-48,37-59.6,44.4"/>
	</g>
	<g id="XMLID_9_">
		<path id="XMLID_12_" fill="#FFFFFF" d="M216.5,97L216.5,97c3.6-2.3,9.4-6.7,16-11.9L216.5,97z"/>
		<path id="XMLID_15_" fill="#FFFFFF" d="M217.5,105l3.8-2.7c-1.6-1.8-3.2-3.6-4.9-5.3C218.2,98.7,215.9,103.2,217.5,105z"/>
		<path id="XMLID_16_" fill="#77BC28" d="M315.7,139.8c-20.4-20.4-40.9-40.8-61.9-60.7l-32.5,23.1c12.2,14.4,19.6,33,19.6,53.4
			c0,11.2-2.2,21.9-6.3,31.7c12.6,6.7,53.3,28.1,69.3,34c8.3-19.2,12.9-40.4,12.9-62.7C316.8,152.3,316.5,146,315.7,139.8z"/>
		<polygon id="XMLID_17_" fill="#77BC28" points="216.5,97 216.5,97 216.5,97 		"/>
	</g>
	<g id="XMLID_2_">
		<path id="XMLID_5_" fill="#E57863" d="M-0.3,158.7c0,22,4.5,42.9,12.6,61.9c15.6-7,56.6-28.7,69.6-33.5c-4-9.7-6.2-20.3-6.2-31.5
			c0-32.5,18.7-60.5,46-74l-33.8-65C35.6,42.6-0.3,96.4-0.3,158.7z"/>
	</g>
	<line id="XMLID_1_" fill="#FFFFFF" x1="208" y1="93.5" x2="282" y2="40.9"/>
	<polygon id="XMLID_13_" fill="#EDB72F" points="239.3,69.7 226.7,57 210,91 	"/>
	<path id="XMLID_4_" fill="#777777" d="M221.8,57l-64,77.2c-0.2,0-0.5,0-0.7,0c-11.8,0-21.4,9.6-21.4,21.4
		c0,11.8,9.6,21.4,21.4,21.4s21.4-9.6,21.4-21.4c0-2.1-0.3-4.1-0.9-5.9l50.9-87.9C231.2,57.3,225.1,53.1,221.8,57z"/>
</g>
</svg>
