<?xml version="1.0" encoding="utf-8"?>
<!-- Generator: Adobe Illustrator 18.1.1, SVG Export Plug-In . SVG Version: 6.00 Build 0)  -->
<!DOCTYPE svg PUBLIC "-//W3C//DTD SVG 1.1//EN" "http://www.w3.org/Graphics/SVG/1.1/DTD/svg11.dtd">
<svg version="1.1" id="Layer_1" xmlns="http://www.w3.org/2000/svg" xmlns:xlink="http://www.w3.org/1999/xlink" x="0px" y="0px"
	 viewBox="259.8 160.8 156 156" enable-background="new 259.8 160.8 156 156" xml:space="preserve">
<g>
	<path fill="#CCCCCC" d="M331,237.3l-5.8,5.8c0,0-0.3,0-0.5,0l-55.3-55c0,0,0-0.3,0-0.5l-0.5-6l6.3,0.3c0,0,0.3,0,0.5,0L331,237
		V237.3z"/>
	<path fill="#9D73C7" d="M386,298.3L386,298.3c-4.9,4.9-13.2,4.9-18.4,0l-52.2-52.2c-4.9-4.9-4.9-13.2,0-18.4l0,0
		c4.9-4.9,13.2-4.9,18.4,0l52.2,52.2C391.2,285.1,391.2,293.4,386,298.3z"/>
	<polygon fill="#8B63AA" points="350.5,245.2 350.5,282.1 329.1,260.6 	"/>
	
		<rect x="319" y="205.7" transform="matrix(0.7071 0.7071 -0.7071 0.7071 271.8504 -162.3822)" fill="#AAAAAA" width="25.8" height="82.5"/>
	<path fill="#AAAAAA" d="M293.1,305.2c-12.1,0-21.7-9.9-21.7-21.7c0-12.1,9.9-21.7,21.7-21.7c11.8,0,21.7,9.9,21.7,21.7
		C315.1,295.6,305.2,305.2,293.1,305.2z M293.1,278.5c-2.7,0-4.9,2.2-4.9,4.9c0,2.7,2.2,4.9,4.9,4.9c2.7,0,4.9-2.2,4.9-4.9
		S295.8,278.5,293.1,278.5z"/>
	<path fill="#AAAAAA" d="M391.5,207.3h-20.1v-20.1l14.6-14.6c-3.6-1.4-7.4-1.9-11.3-1.9c-18.4,0-33.5,15.1-33.5,33.5
		s15.1,33.5,33.5,33.5s33.5-15.1,33.5-33.5c0-4.1-0.8-8-2.2-11.8L391.5,207.3z"/>
</g>
</svg>
