<?xml version="1.0" encoding="utf-8"?>
<!-- Generator: Adobe Illustrator 19.0.0, SVG Export Plug-In . SVG Version: 6.00 Build 0)  -->
<!DOCTYPE svg PUBLIC "-//W3C//DTD SVG 1.1//EN" "http://www.w3.org/Graphics/SVG/1.1/DTD/svg11.dtd">
<svg version="1.1" id="Layer_1" xmlns="http://www.w3.org/2000/svg" xmlns:xlink="http://www.w3.org/1999/xlink" x="0px" y="0px"
	 viewBox="0 0 289.2 288.5" enable-background="new 0 0 289.2 288.5" xml:space="preserve">
<path id="XMLID_129_" fill="#BBBBBB" d="M187.7,263H177v-58h-66v58h-9.8c-6.8,0-12.2,5.6-12.2,12.3V288h111v-12.7
	C200,268.6,194.4,263,187.7,263z"/>
<polygon id="XMLID_126_" fill="#999999" points="111.9,230 177.9,230 177.4,263 144.9,263 "/>
<path id="XMLID_132_" fill="#777777" d="M289,25c0-13.8-11.2-25-25-25H25C11.2,0,0,11.2,0,25v180c0,13.8,11.2,25,25,25h239
	c13.8,0,25-11.2,25-25V25z M267,173c0,5.5-4.5,10-10,10H31c-5.5,0-10-4.5-10-10V30c0-5.5,4.5-10,10-10h226c5.5,0,10,4.5,10,10V173z"
	/>
<circle id="XMLID_124_" fill="#999999" cx="143.3" cy="205.8" r="10.7"/>
</svg>
