<?xml version="1.0" encoding="utf-8"?>
<!-- Generator: Adobe Illustrator 19.0.0, SVG Export Plug-In . SVG Version: 6.00 Build 0)  -->
<!DOCTYPE svg PUBLIC "-//W3C//DTD SVG 1.1//EN" "http://www.w3.org/Graphics/SVG/1.1/DTD/svg11.dtd">
<svg version="1.1" id="Layer_1" xmlns="http://www.w3.org/2000/svg" xmlns:xlink="http://www.w3.org/1999/xlink" x="0px" y="0px"
	 viewBox="0 0 248.5 320.2" enable-background="new 0 0 248.5 320.2" xml:space="preserve">
<path id="XMLID_182_" fill="#888888" d="M160.7,19h-12.3c-3.5-11-12.9-18.2-23.9-18.2S104,8,100.5,19H88.2C79.9,19,73,25.8,73,34.1
	V73h103V34.1C176,25.8,169,19,160.7,19z M124.5,37.3c-4.7,0-8.5-4.1-8.5-9.1c0-5,3.8-9.1,8.5-9.1c4.7,0,8.5,4.1,8.5,9.1
	C132.9,33.2,129.1,37.3,124.5,37.3z"/>
<g id="XMLID_97_">
	<polygon id="XMLID_124_" fill="none" points="214.2,72.5 214.2,72.5 214.2,72.5 	"/>
	<g id="XMLID_128_">
		<path id="XMLID_213_" fill="#C6A589" d="M248,65.7c0-14.8-10.7-26.7-24.5-26.7H190v34h24v-0.2v-0.1v-0.1l-0.1,0l34.1,36.8V65.7z"
			/>
	</g>
	<g id="XMLID_178_">
		<path id="XMLID_211_" fill="#C6A589" d="M35,73h24V39H25.4C11.6,39,0,50.9,0,65.7v227.2C0,307.7,11.6,320,25.4,320h40.5l-31-33.7
			l0.2-0.1V73z"/>
	</g>
	<g id="XMLID_187_">
		<polygon id="XMLID_193_" fill="#F9F9F5" points="214.2,72.5 214.2,72.5 214.2,72.5 		"/>
	</g>
</g>
<g id="XMLID_179_">
	<g id="XMLID_180_">
		<polygon id="XMLID_194_" fill="#BA987F" points="214.2,72.5 214.2,72.5 214.2,72.5 		"/>
	</g>
	<g id="XMLID_181_">
		<path id="XMLID_202_" fill="#BA987F" d="M214,72.5V286H34.7l31.2,34h157.7c13.7,0,24.5-12.3,24.5-27.1V109.3L214,72.5z"/>
	</g>
</g>
</svg>
