<?xml version="1.0" encoding="utf-8"?>
<!-- Generator: Adobe Illustrator 19.1.0, SVG Export Plug-In . SVG Version: 6.00 Build 0)  -->
<!DOCTYPE svg PUBLIC "-//W3C//DTD SVG 1.1//EN" "http://www.w3.org/Graphics/SVG/1.1/DTD/svg11.dtd">
<svg version="1.1" id="Layer_1" xmlns="http://www.w3.org/2000/svg" xmlns:xlink="http://www.w3.org/1999/xlink" x="0px" y="0px"
	 viewBox="-104 211.2 150 83.8" style="enable-background:new -104 211.2 150 83.8;" xml:space="preserve">
<style type="text/css">
	.st0{fill:#79C262;}
	.st1{fill:#E57863;}
</style>
<g>
	<g>
		<path class="st0" d="M-104,211.2v40.5H46.2v-40.5H-104z M-83.8,231v5.3h-3V231l-2.6,0.2l4.1-5.6l4.1,5.6L-83.8,231z M-69.7,237
			c-1.7,0-3.3-0.6-4.3-1.5l1.1-1.8c0.7,0.7,2.1,1.3,3.3,1.3c1.1,0,1.6-0.4,1.6-1c0-1.6-5.7-0.3-5.7-4.1c0-1.6,1.4-3,3.9-3
			c1.6,0,2.9,0.6,3.9,1.3l-1,1.7c-0.6-0.6-1.7-1.1-2.8-1.1c-0.9,0-1.5,0.4-1.5,1c0,1.4,5.7,0.2,5.7,4.1C-65.5,235.6-67,237-69.7,237
			z M-54.7,236.7h-2.5v-1.2c-0.7,0.7-1.8,1.4-3.4,1.4c-2.1,0-3.1-1.2-3.1-3v-6.8h2.5v5.8c0,1.3,0.7,1.8,1.8,1.8c1,0,1.7-0.5,2.2-1.1
			v-6.5h2.5V236.7z M-46.7,237c-1.1,0-2.2-0.5-3-1.5v4.9h-2.5v-13.3h2.5v1.2c0.7-0.9,1.8-1.4,3-1.4c2.5,0,4.2,1.8,4.2,5
			C-42.4,235.1-44.2,237-46.7,237z M-35.1,237c-1.1,0-2.2-0.5-3-1.5v4.9h-2.5v-13.3h2.5v1.2c0.7-0.9,1.8-1.4,3-1.4
			c2.5,0,4.2,1.8,4.2,5S-32.6,237-35.1,237z M-26.5,236.7H-29v-13.2h2.5V236.7z M-19.4,238.3c-0.7,1.8-2,2.3-3.6,2.3
			c-0.3,0-0.9-0.1-1.3-0.1l0.4-2.3c0.2,0.1,0.6,0.2,0.8,0.2c0.7,0,1.1-0.2,1.3-0.7l0.4-0.8l-3.9-9.7h2.7l2.5,6.7l2.5-6.7h2.7
			L-19.4,238.3z"/>
		<path class="st0" d="M-35.9,229.1c-0.8,0-1.7,0.5-2.2,1.1v3.4c0.4,0.6,1.3,1.1,2.2,1.1c1.4,0,2.4-1.1,2.4-2.8
			C-33.5,230.3-34.5,229.1-35.9,229.1z"/>
		<path class="st0" d="M-47.5,229.1c-0.8,0-1.7,0.5-2.2,1.1v3.4c0.4,0.6,1.3,1.1,2.2,1.1c1.4,0,2.4-1.1,2.4-2.8
			C-45.1,230.3-46,229.1-47.5,229.1z"/>
	</g>
	<g>
		<path class="st1" d="M-48.1,277.7c0,0.9,0.8,1.4,1.8,1.4c0.8,0,1.6-0.3,2-0.8v-1.2c-0.4-0.6-1.2-0.8-2-0.8
			C-47.3,276.3-48.1,276.8-48.1,277.7z"/>
		<path class="st1" d="M-68.8,273c-1.4,0-2.4,1.1-2.4,2.8c0,1.7,1,2.8,2.4,2.8c0.8,0,1.7-0.5,2.2-1.1v-3.4
			C-67,273.5-67.9,273-68.8,273z"/>
		<path class="st1" d="M-104,254.4v40.5H7.5v-40.5H-104z M-85.3,280.3l-4.1-5.6l2.6,0.2v-5.3h3v5.3l2.6-0.2L-85.3,280.3z
			 M-64.1,284.3h-2.5v-4.9c-0.8,1-1.8,1.5-3,1.5c-2.5,0-4.2-1.8-4.2-5c0-3.2,1.8-5,4.2-5c1.2,0,2.2,0.5,3,1.4v-1.2h2.5V284.3z
			 M-52.6,280.6h-2.5v-1.2c-0.7,0.7-1.8,1.4-3.4,1.4c-2.1,0-3.1-1.2-3.1-3V271h2.6v5.8c0,1.3,0.7,1.8,1.8,1.8c1,0,1.7-0.5,2.2-1.1
			V271h2.5L-52.6,280.6L-52.6,280.6z M-41.8,280.6h-2.5v-1c-0.7,0.8-1.8,1.2-3,1.2c-1.5,0-3.3-1-3.3-3.2c0-2.2,1.8-3.1,3.3-3.1
			c1.3,0,2.4,0.4,3,1.2v-1.3c0-1-0.8-1.6-2.1-1.6c-1,0-2,0.4-2.8,1.1l-1-1.7c1.2-1,2.7-1.5,4.2-1.5c2.2,0,4.2,0.9,4.2,3.6
			C-41.8,274.3-41.8,280.6-41.8,280.6z M-36.8,280.6h-2.5v-13.2h2.5V280.6z M-31.7,280.6h-2.5V271h2.5V280.6z M-33,270
			c-0.8,0-1.5-0.7-1.5-1.5s0.7-1.5,1.5-1.5s1.5,0.7,1.5,1.5S-32.2,270-33,270z M-26,280.9c-1.8,0-2.7-0.9-2.7-2.6v-5h-1.6v-2.2h1.6
			v-2.6h2.5v2.6h1.9v2.1h-1.9v4.3c0,0.6,0.3,1.1,0.9,1.1c0.4,0,0.7-0.1,0.9-0.3l0.5,1.9C-24.3,280.6-25,280.9-26,280.9z M-18,282.2
			c-0.7,1.8-2,2.3-3.6,2.3c-0.3,0-0.9-0.1-1.3-0.1l0.4-2.3c0.2,0.1,0.6,0.2,0.8,0.2c0.7,0,1.1-0.2,1.3-0.7l0.4-0.8l-3.9-9.7h2.7
			l2.5,6.7l2.5-6.7h2.7L-18,282.2z"/>
	</g>
</g>
</svg>
