<?xml version="1.0" encoding="utf-8"?>
<!-- Generator: Adobe Illustrator 18.1.1, SVG Export Plug-In . SVG Version: 6.00 Build 0)  -->
<!DOCTYPE svg PUBLIC "-//W3C//DTD SVG 1.1//EN" "http://www.w3.org/Graphics/SVG/1.1/DTD/svg11.dtd">
<svg version="1.1" id="Layer_1" xmlns="http://www.w3.org/2000/svg" xmlns:xlink="http://www.w3.org/1999/xlink" x="0px" y="0px"
	 viewBox="0 0 132.2 107.7" enable-background="new 0 0 132.2 107.7" xml:space="preserve">
<path fill="#57C1EF" d="M30.4,94.8c-3.2-5.8-5.1-12.6-5.1-19.7c0-22.5,18.2-40.7,40.7-40.7c22.5,0,40.7,18.2,40.7,40.7
	c0,7.2-1.9,13.9-5.1,19.7l21.9,12.7c5.4-9.6,8.5-20.6,8.5-32.4c0-36.5-29.5-66-66-66c-36.5,0-66,29.5-66,66
	c0,11.8,3.1,22.9,8.5,32.4L30.4,94.8z"/>
<path fill="#00C9FF" d="M30.4,94.8c-3.2-5.8-5.1-12.6-5.1-19.7c0-22.5,18.2-40.7,40.7-40.7c22.5,0,40.7,18.2,40.7,40.7
	c0,7.2-1.9,13.9-5.1,19.7l21.9,12.7c5.4-9.6,8.5-20.6,8.5-32.4c0-36.5-29.5-66-66-66c-36.5,0-66,29.5-66,66
	c0,11.8,3.1,22.9,8.5,32.4L30.4,94.8z"/>
<path opacity="0.1" d="M36.6,28.6l12,9.3c0,0,0,0-3.3,2.2C40.9,38,36.6,28.6,36.6,28.6z"/>
<linearGradient id="SVGID_1_" gradientUnits="userSpaceOnUse" x1="89.7003" y1="42.6703" x2="51.5391" y2="12.0374">
	<stop  offset="0" style="stop-color:#FFFFFF"/>
	<stop  offset="1" style="stop-color:#000000"/>
</linearGradient>
<path opacity="0.1" fill="url(#SVGID_1_)" d="M50.3,28.1l10,6.7c0,0,14.2-2.8,27.8,6.1c8,5.2,18.8-0.5,24.1,2.7L61.4,9.2l-10.8,1.7
	L50.3,28.1z"/>
<polygon fill="#246086" points="34.7,5.7 49.4,0 54.6,14.9 50.3,28.1 39.2,19.6 "/>
<circle fill="#5E5E5E" cx="67.2" cy="77.7" r="9.6"/>
<path fill="#5E5E5E" d="M67.2,77.7L61.5,78L35,29.6c-1.1-1.8,0.4-2.7,1.6-1l33.2,44.1L67.2,77.7z"/>
</svg>
