<?xml version="1.0" encoding="utf-8"?>
<!-- Generator: Adobe Illustrator 18.1.1, SVG Export Plug-In . SVG Version: 6.00 Build 0)  -->
<!DOCTYPE svg PUBLIC "-//W3C//DTD SVG 1.1//EN" "http://www.w3.org/Graphics/SVG/1.1/DTD/svg11.dtd">
<svg version="1.1" id="Layer_1" xmlns="http://www.w3.org/2000/svg" xmlns:xlink="http://www.w3.org/1999/xlink" x="0px" y="0px"
	 viewBox="276 488 116 176" enable-background="new 276 488 116 176" xml:space="preserve">
<g>
	<ellipse fill="#AAAAAA" cx="336.3" cy="637.6" rx="13.5" ry="7.1"/>
	<path fill="#FFC73B" d="M358,609.5h-44.5l-0.5-4.4c-0.5-5.2-5.5-12.1-10.7-19.5c-7.4-10.4-15.9-22.5-15.9-35.5
		c0-26.7,21.7-48.4,48.4-48.4c26.7,0,48.4,21.7,48.4,48.4c0,12.6-7.4,23.6-14.3,33.5c-5.2,7.7-9.9,14.8-10.4,21.2L358,609.5z"/>
	<path fill="#FFFFFF" d="M336.5,607.3c-0.5,0-0.8,0-1.4-0.3c-1.9-0.8-3-3-2.2-4.9l12.9-31.6c0.8-1.9,3-2.7,4.9-2.2
		c1.9,0.8,3,3,2.2,4.9L340,604.8C339.6,606.2,338.2,607.3,336.5,607.3z"/>
	<path fill="#FFFFFF" d="M336.3,607.3c-1.4,0-3-0.8-3.6-2.5l-12.9-31.6c-0.8-1.9,0.3-4.1,2.2-4.9c1.9-0.8,4.1,0.3,4.9,2.2l12.9,31.6
		c0.8,1.9-0.3,4.1-2.2,4.9C337.1,607.1,336.5,607.3,336.3,607.3z"/>
	<path fill="#EDB72F" d="M352.5,569.7l15.4,15.4c0,0-7.1,9.6-8.2,14.3s-17.3,0-17.3,0s9.1-21.7,9.9-24.7
		C353,571.9,353.6,570.8,352.5,569.7z"/>
	<polygon fill="#EDB72F" points="326.9,570.5 340.4,584 336.3,593.9 	"/>
	<path fill="#888888" d="M351.9,637.9l-33-0.3c-4.1,0-7.7-2.5-7.7-6.9v-31.3h48.4v31.3C359.6,635.1,356.3,637.9,351.9,637.9z"/>
	<path fill="#AAAAAA" d="M311.2,599.1l39.3,38.8h-31.9c0,0-7.4-0.3-7.4-7.4S311.2,599.1,311.2,599.1z"/>
</g>
</svg>
