<?xml version="1.0" encoding="utf-8"?>
<!-- Generator: Adobe Illustrator 18.1.1, SVG Export Plug-In . SVG Version: 6.00 Build 0)  -->
<!DOCTYPE svg PUBLIC "-//W3C//DTD SVG 1.1//EN" "http://www.w3.org/Graphics/SVG/1.1/DTD/svg11.dtd">
<svg version="1.1" id="Layer_1" xmlns="http://www.w3.org/2000/svg" xmlns:xlink="http://www.w3.org/1999/xlink" x="0px" y="0px"
	 viewBox="265.8 325.8 138 162" enable-background="new 265.8 325.8 138 162" xml:space="preserve">
<g>
	<g>
		<path fill="#1293C6" d="M383.5,465.7h-91.3c-8.5,0-9.1-14,0-14c0.8,0,15.4,0,15.4,0l-7.7-69.8L279,358.5v102.3
			c0,6.3,5.5,11.5,11.8,11.5h92.7V465.7z"/>
		<path fill="#1293C6" d="M370.3,338.5h-80c-6.3,0-11.5,5.2-11.5,11.5c0,0,0,106.1,0,110.8s5.2-9.3,5.2-9.3h86.3V338.5z"/>
		<g>
			<rect x="302.4" y="338.5" fill="#12B5EA" width="81.1" height="113"/>
		</g>
	</g>
	
		<rect x="334.9" y="366.9" transform="matrix(0.7071 -0.7071 0.7071 0.7071 -164.187 351.016)" fill="#FFFFFF" width="13.5" height="13.5"/>
	
		<rect x="345.6" y="377.6" transform="matrix(0.7071 -0.7071 0.7071 0.7071 -168.5782 361.744)" fill="#FFFFFF" width="13.5" height="13.5"/>
	
		<rect x="324.1" y="377.6" transform="matrix(0.7071 -0.7071 0.7071 0.7071 -174.9034 346.5125)" fill="#FFFFFF" width="13.5" height="13.5"/>
	
		<rect x="334.6" y="388.6" transform="matrix(0.7071 -0.7071 0.7071 0.7071 -179.554 357.1284)" fill="#FFFFFF" width="13.5" height="13.5"/>
</g>
</svg>
