<?xml version="1.0" encoding="utf-8"?>
<!-- Generator: Adobe Illustrator 18.1.1, SVG Export Plug-In . SVG Version: 6.00 Build 0)  -->
<!DOCTYPE svg PUBLIC "-//W3C//DTD SVG 1.1//EN" "http://www.w3.org/Graphics/SVG/1.1/DTD/svg11.dtd">
<svg version="1.1" id="Layer_1" xmlns="http://www.w3.org/2000/svg" xmlns:xlink="http://www.w3.org/1999/xlink" x="0px" y="0px"
	 viewBox="0 0 97 50" enable-background="new 0 0 97 50" xml:space="preserve">
<g>
	<g>
		<path fill="#85C808" d="M8.8,15.4H7.2v11.1h0v11.7c0,0.9,0.7,1.6,1.6,1.6h3.5V47c0,1.6,1.3,2.9,2.9,2.9c1.6,0,2.9-1.3,2.9-2.9
			v-7.2h5.4V47c0,1.6,1.3,2.9,2.9,2.9c1.6,0,2.9-1.3,2.9-2.9v-7.2h3.5c0.9,0,1.6-0.7,1.6-1.6V26.5h0V15.4h-1.6H8.8z"/>
		<path fill="#85C808" d="M38.6,14.5c-1.6,0-2.9,1.3-2.9,2.9v12.9c0,1.6,1.3,2.9,2.9,2.9c1.6,0,2.9-1.3,2.9-2.9V17.4
			C41.5,15.8,40.2,14.5,38.6,14.5z"/>
		<path fill="#85C808" d="M2.9,14.5c-1.6,0-2.9,1.3-2.9,2.9v12.9c0,1.6,1.3,2.9,2.9,2.9c1.6,0,2.9-1.3,2.9-2.9V17.4
			C5.8,15.8,4.5,14.5,2.9,14.5z"/>
	</g>
	<path fill="#85C808" d="M27.3,3.7l2.3-3.3c0-0.1,0-0.2-0.2-0.3C29.3,0,29.2,0,29.1,0l-2.4,3.4c-1.6-0.6-3.6-1-6-1
		c-2.4,0-4.4,0.4-6,1L12.4,0c0-0.1-0.2,0-0.3,0c-0.1,0.1-0.2,0.2-0.2,0.3l2.3,3.2C7.5,6.6,7.3,13.8,7.3,13.8h26.9
		C34.2,13.8,33.9,6.6,27.3,3.7z M14.8,9.6c-0.9,0-1.6-0.7-1.6-1.6c0-0.9,0.7-1.6,1.6-1.6c0.9,0,1.6,0.7,1.6,1.6
		C16.5,8.8,15.7,9.6,14.8,9.6z M26.6,9.6c-0.9,0-1.6-0.7-1.6-1.6c0-0.9,0.7-1.6,1.6-1.6c0.9,0,1.6,0.7,1.6,1.6
		C28.2,8.8,27.5,9.6,26.6,9.6z"/>
</g>
<g>
	<path fill="#36404B" d="M91,23.5c-0.1-5.6,4.6-8.3,4.8-8.4c-2.6-3.8-6.7-4.3-8.1-4.4c-3.4-0.3-6.7,2-8.5,2c-1.7,0-4.5-2-7.3-1.9
		c-3.8,0.1-7.2,2.2-9.2,5.6c-3.9,6.8-1,16.8,2.8,22.3c1.9,2.7,4.1,5.7,7,5.6c2.8-0.1,3.9-1.8,7.3-1.8c3.4,0,4.3,1.8,7.3,1.7
		c3-0.1,4.9-2.7,6.8-5.4c2.1-3.1,3-6.1,3.1-6.3C96.9,32.4,91.1,30.2,91,23.5"/>
	<path fill="#36404B" d="M85.5,7.1C87,5.2,88.1,2.6,87.8,0c-2.2,0.1-4.9,1.5-6.5,3.4c-1.4,1.7-2.7,4.3-2.3,6.8
		C81.4,10.4,83.9,8.9,85.5,7.1"/>
</g>
</svg>
