<?xml version="1.0" encoding="utf-8"?>
<!-- Generator: Adobe Illustrator 18.1.1, SVG Export Plug-In . SVG Version: 6.00 Build 0)  -->
<!DOCTYPE svg PUBLIC "-//W3C//DTD SVG 1.1//EN" "http://www.w3.org/Graphics/SVG/1.1/DTD/svg11.dtd">
<svg version="1.1" id="Layer_1" xmlns="http://www.w3.org/2000/svg" xmlns:xlink="http://www.w3.org/1999/xlink" x="0px" y="0px"
	 viewBox="0 0 150 50.5" enable-background="new 0 0 150 50.5" xml:space="preserve">
<g>
	<path fill="#5D5D5D" d="M146,34.7c-0.6-1-10.7-3.7-10.7-3.7c-0.6-0.3-3-2.6-3-2.6L128.1,47l-2.4-14.4l1.4-1.9l-2.4-1.3l-2.4,1.3
		l1.4,1.9L121.3,47l-4.1-18.2c0,0-2.4,2.3-3,2.6c0,0-10.1,2.3-10.9,3.2c-0.7,0.9-3.9,15.8-3.9,15.8h25.3h25.3
		C149.9,50.5,146.6,35.7,146,34.7z"/>
	<path fill="#5D5D5D" d="M116.2,15.3C116.2,15.3,116.2,15.4,116.2,15.3C116.2,15.4,116.2,15.3,116.2,15.3z"/>
	<path fill="#5D5D5D" d="M116.6,9.4c0,0,8.1-0.6,13-5.4c4.5,3.4,3.6,11.9,3.6,11.9s0.4-0.3,0.8-1c0.5-0.8,1.1-2.3,1.1-4.5
		c0-4.1-2.2-9.5-5.2-9.3c-4-2-12.8-1.7-14.7,7.1c-1,3,0.7,7.2,0.9,7.4C116,15.4,115.6,14.3,116.6,9.4z"/>
	<path fill="#5D5D5D" d="M92.8,35.7c-2.6-1-7.1-2.5-7.1-2.5c-1.1-2.3-1-6.2-0.6-12.9c0.6-8.9-1.8-15.5-5.6-17.8
		c-4.2-2.6-12.6-2.2-12.2,0.7c-6.5,2.9-6.7,9.1-6.5,19.6c0,4.1-0.3,9.7-0.3,9.7s-2.5,1.1-6.9,2.5c-3.4,1.1-2.8,1.6-2.7,5.8
		c0.1,3.1,0.3,9.7,0.3,9.7h18.7c0,0-2.2-9.5-2.7-11.4c-0.5-1.9-4.1,1.3-4.1,1.3s1.9-6.5,4.7-9.4c0.1-1.9,0.2-3.3,0.2-4.7
		c-1.3-1.3-3.3-3-3.4-5.2c-0.1-1.1-0.2-3.2-0.3-5.1c0.1,0.5,0.2,1,0.2,1c0,0.4,0.4,0.7,0.9,0.8c0.5,0.1,1.4,0.2,2.2,0.2
		c0.8,0,2.2-0.2,2.2-0.2c0.4,0,1.1-0.3,1.1-0.7l0.3-1.7c0.2-0.1,1.6-0.2,1.9,0l0.3,1.8c0,0.4,0.7,0.7,1.1,0.7c0,0,1.4,0.2,2.2,0.2
		c0.8,0,1.6-0.1,2.2-0.2c0.5-0.1,0.9-0.4,0.9-0.8c0,0,0.1-0.8,0.1-1.6h0.9c0.1,0.2,0.2,0.2,0.2,0.2c0,4.9-1.5,7.6-3.2,9.8
		c-1.3,1.6-0.5,5.5-0.5,5.5c1.8,1.7,4.9,7.9,4.9,7.9c-3.2-1.2-3.6,0.2-3.6,0.2l-4.1,11.8H94c-0.1-1.7,0.6-6.7,0.8-10.2
		C94.9,38.6,96,36.9,92.8,35.7z M70.5,15.7c-0.1,0.5-0.2,0.9-0.3,1.1c-0.1,0.1-1.3,0.4-2.5,0.4c-1.2,0-2.2-0.2-2.3-0.3
		c-0.1-0.1-0.4-2.2-0.3-2.3c0.2-0.2,1.3-0.3,2.6-0.3c1.3,0,2.3,0.1,2.7,0.4C70.5,14.7,70.5,15.2,70.5,15.7z M79.2,16.8
		c-0.1,0.1-1.1,0.4-2.3,0.3c-1.2,0-2.5-0.3-2.5-0.4c-0.1-0.1-0.2-0.6-0.3-1.1c-0.1-0.5,0-1,0.1-1.1c0.4-0.4,1.4-0.4,2.7-0.4
		c1.3,0,2.2,0.1,2.4,0.2C79.4,14.5,79.3,16.7,79.2,16.8z M76.8,13.5c-1.2,0-2.1,0.2-2.6,0.3c-0.2,0-0.3,0.1-0.4,0.2
		c0,0-0.2,0.2-0.3,0.2c-0.1,0-2.1,0-2.2,0c-0.2,0-0.7-0.4-0.9-0.4c-0.5-0.2-1.4-0.3-2.6-0.3c-1.1,0-2.8,0.3-3.4,0.4
		c0-1-0.1-1.7-0.1-1.7c0.8-3.7,5.2-5.7,5.2-5.7c3.7,0.2,8.1,4.7,10.2,7.3C79.1,13.7,77.8,13.5,76.8,13.5z"/>
	<path fill="#5D5D5D" d="M31.2,27.7c0,0-0.3,5.9-3.4,8c0-3,0-5-1-4.1c-1,1-3.4,4.1-3.4,4.1s-2.1-2.2-3.4-3.5c-1.3-1.3-1.8,1.5-2,3.5
		c-1.9-2.4-2.3-8-2.3-8S2.4,32.5,2.1,35.2S0.4,50.5,0.4,50.5h23h23c0,0-1.2-12.5-1.7-15.3C44.3,32.5,31.2,27.7,31.2,27.7z"/>
	<path fill="#5D5D5D" d="M31.5,13.1l-0.1,0c-1.8-0.2-3.1-0.3-3.8-0.3c-1.3,0-2.2,0.2-2.7,0.3c-0.2,0-0.3,0.1-0.4,0.2
		c0,0-0.1,0-0.1,0.1c0,0-0.1,0-0.1,0.1c-0.1,0.1-0.2,0.1-0.3,0.1c-0.3-0.1-0.6-0.1-0.9-0.1c-0.3,0-0.5,0.1-0.8,0.1
		c-0.1,0-0.1,0-0.2,0c-0.2,0-0.3-0.1-0.3-0.1c0,0,0,0-0.1,0c-0.2-0.1-0.3-0.2-0.5-0.3c-0.5-0.2-1.4-0.3-2.7-0.3
		c-0.7,0-2,0.1-3.8,0.3l-0.1,0c-0.2,0-0.2,0.3-0.2,0.4c0,0,0.1,0.9,0.3,0.9c0,0,0,0,0,0l0.2,0l0.4,1.7c0,0.5,0.4,0.8,1,0.9l0.2,0
		c0.5,0.1,1.3,0.2,2,0.2c0.8,0,2.1-0.2,2.2-0.2c0.5,0,1.2-0.4,1.2-0.8l0.3-1.7c0.2-0.1,0.6-0.3,0.9-0.3c0.3,0,0.6,0.1,0.8,0.2
		l0.3,1.7c0,0.5,0.7,0.9,1.2,0.9c0,0,0,0,0,0c0.1,0,1.4,0.2,2.2,0.2c0.7,0,1.4-0.1,2-0.2l0.2,0c0.6-0.1,1-0.4,1-0.9l0.4-1.7l0.2,0
		c0.3,0,0.4-0.9,0.4-0.9C31.7,13.4,31.7,13.1,31.5,13.1z M30.1,14.9c0,0.1-0.1,0.3-0.1,0.5c0,0.3-0.1,0.7-0.2,0.7
		c-0.1,0.1-1,0.3-2.3,0.3c-1.2,0-2.4-0.3-2.5-0.3c-0.1-0.1-0.2-0.5-0.2-1c-0.1-0.5,0-0.9,0-1c0.4-0.3,1.4-0.4,2.6-0.4h0
		c1.7,0,2.5,0.1,2.6,0.2C30.2,13.9,30.3,14.1,30.1,14.9z M21.1,15.1c-0.1,0.5-0.2,0.9-0.2,1c-0.1,0.1-1.3,0.3-2.5,0.4
		c-1.2,0-2.2-0.2-2.3-0.3C16.1,16,16,15.6,16,15.4c0-0.2,0-0.3-0.1-0.5c-0.2-0.8-0.1-1,0-1c0.1-0.1,0.9-0.2,2.6-0.2h0
		c1.1,0,2.2,0,2.6,0.4C21.1,14.1,21.2,14.5,21.1,15.1z"/>
	<path fill="#5D5D5D" d="M12,19.3c0.1,0,0.2,0,0.2,0c0.2,0.8,0.6,1.3,1.1,1.3c0.2,0,0.3-0.1,0.5-0.2c0.9,0.8,3,2.3,5.7,3
		c0.1,0.5,0.5,0.8,1,0.8c0.5,0,1-0.4,1-1s-0.4-1-1-1c-0.3,0-0.6,0.2-0.8,0.4C17,22,15,20.5,14.2,19.8c0.3-0.6,0.4-1.4,0.4-2.4
		c0-1.2-0.3-2.3-0.7-2.9v-3.1c0-5.1,3.9-9.1,8.9-9.1c5,0,8.7,3.9,8.7,9.1c0,0.3,0.3,0.6,0.6,0.6c0.3,0,0.6-0.3,0.6-0.6
		C32.7,5.6,28.3,1,22.8,1c-5.7,0-10.1,4.5-10.1,10.3v3.1c-0.2,0.2-0.3,0.6-0.4,1c-0.1,0-0.2,0-0.2,0c-0.7,0-1.2,0.9-1.2,2
		C10.8,18.5,11.3,19.3,12,19.3z"/>
</g>
</svg>
