<?xml version="1.0" encoding="utf-8"?>
<!-- Generator: Adobe Illustrator 19.0.0, SVG Export Plug-In . SVG Version: 6.00 Build 0)  -->
<!DOCTYPE svg PUBLIC "-//W3C//DTD SVG 1.1//EN" "http://www.w3.org/Graphics/SVG/1.1/DTD/svg11.dtd">
<svg version="1.1" id="Layer_1" xmlns="http://www.w3.org/2000/svg" xmlns:xlink="http://www.w3.org/1999/xlink" x="0px" y="0px"
	 viewBox="0 0 188.5 334" enable-background="new 0 0 188.5 334" xml:space="preserve">
<polygon id="XMLID_95_" fill="#EDB72F" points="143.4,229.9 125,211.4 125,211.4 143.4,193 125,174.5 125,157.8 59,158.4 59,300.1 
	92.6,333.6 125,301.2 125,285.2 143.4,266.7 125,248.3 125,248.3 "/>
<polygon id="XMLID_101_" fill="#FFC73B" points="59.2,181 59,181 59,300.1 92.3,333.6 106,319.7 106,227.6 "/>
<path id="XMLID_98_" fill="#FFC73B" d="M94.5,0.6C42.8,0.6,0.9,42.5,0.9,94.2c0,51.7,41.9,93.6,93.6,93.6
	c51.7,0,93.6-41.9,93.6-93.6C188,42.5,146.1,0.6,94.5,0.6z M94.5,67.5c-10.8,0-19.6-8.8-19.6-19.6c0-10.8,8.8-19.6,19.6-19.6
	S114,37.1,114,47.9C114,58.7,105.3,67.5,94.5,67.5z"/>
</svg>
