<?xml version="1.0" encoding="utf-8"?>
<!-- Generator: Adobe Illustrator 19.0.0, SVG Export Plug-In . SVG Version: 6.00 Build 0)  -->
<!DOCTYPE svg PUBLIC "-//W3C//DTD SVG 1.1//EN" "http://www.w3.org/Graphics/SVG/1.1/DTD/svg11.dtd">
<svg version="1.1" id="Layer_1" xmlns="http://www.w3.org/2000/svg" xmlns:xlink="http://www.w3.org/1999/xlink" x="0px" y="0px"
	 viewBox="0 0 294.3 227.8" enable-background="new 0 0 294.3 227.8" xml:space="preserve">
<path id="XMLID_129_" fill="#12B5EA" d="M294,59.7c0-18.6,2.2-58.8-147.1-58.8S1,39.2,1,59.7s0,28,0,28C1,98,9.4,106,19.7,106h39.9
	C69.9,106,78,98,78,87.7V84c0-16.5-11.2-29.3,69.5-29.3S217,67.5,217,84v3.8c0,10.3,7.8,18.3,18.1,18.3H275c10.3,0,19-8,19-18.3
	C294,87.7,294,78.3,294,59.7z"/>
<path id="XMLID_167_" fill="#0FA1D3" d="M250.1,50.4C234,34.3,235,32,196,32c-49.7,0-39,0-76.4,0c-16.9,0-24.5,1.2-39.1,16.6
	c-4.8,5-9.2,9.8-13.9,15.1L28.3,106c0,0,14-0.2,25.3-0.2C154,25,224.3,107,248.3,107c30.2,0,37,0.9,44.7-13.8
	C293,93.2,266.2,66.4,250.1,50.4z"/>
<path id="XMLID_128_" fill="#12B5EA" d="M248.4,107c-11.6-24-21.3-53-40.9-53c-20.5,0-102.1,0-117.3,0c-21.6,0-31,29.4-44.7,55
	C32.2,133.9,21,154.8,21,164v48.9c0,8.1,6.4,15.1,14.5,15.1h222.7c8.1,0,14.8-6.9,14.8-15.1V164C273,154.3,260.9,133,248.4,107z
	 M148.1,195.8c-31.3,0-56.7-25.4-56.7-56.7s25.4-56.7,56.7-56.7c31.3,0,56.7,25.4,56.7,56.7S179.4,195.8,148.1,195.8z"/>
<path id="XMLID_126_" fill="#0FA1D3" d="M189.7,100.3l-0.1,0.1c9.4,10.1,15.2,23.7,15.2,38.6c0,31.3-25.4,56.7-56.7,56.7
	c-13.3,0-25.5-4.6-35.2-12.3l-0.2,0.4c0,0,29.1,29.1,43.1,44.1h102.4c8.1,0,14.8-6.9,14.8-15.1v-34.3L189.7,100.3z"/>
</svg>
