<?xml version="1.0" encoding="utf-8"?>
<!-- Generator: Adobe Illustrator 19.1.0, SVG Export Plug-In . SVG Version: 6.00 Build 0)  -->
<!DOCTYPE svg PUBLIC "-//W3C//DTD SVG 1.1//EN" "http://www.w3.org/Graphics/SVG/1.1/DTD/svg11.dtd">
<svg version="1.1" id="Layer_1" xmlns="http://www.w3.org/2000/svg" xmlns:xlink="http://www.w3.org/1999/xlink" x="0px" y="0px"
	 viewBox="-125 55.3 148.9 190.7" enable-background="new -125 55.3 148.9 190.7" xml:space="preserve">
<g>
	
		<linearGradient id="SVGID_1_" gradientUnits="userSpaceOnUse" x1="19.3939" y1="98.0041" x2="-85.2231" y2="205.2865" gradientTransform="matrix(1 0 0 -1 0 302.6)">
		<stop  offset="0" style="stop-color:#FFFFFF"/>
		<stop  offset="1" style="stop-color:#000000"/>
	</linearGradient>
	<path opacity="5.000000e-02" fill="url(#SVGID_1_)" enable-background="new    " d="M-58.5,67.8l81.9,81.6c0,0-0.2,86.4-0.2,89.8
		c0,3.6-0.4,6.1-5.3,6.1c-2.3,0-10.3,0-13.6,0l-118.6-118.5l-7.5-45.2l23.5-11.1L-71,57.4L-58.5,67.8z"/>
	<path fill="#FFFFFF" d="M-84,81.7c5.8,0,10.8,3.3,13,8.3V57.4c-4-1.3-8.3-2.1-12.8-2.1c-17.4,0-32.3,11-38,26.4
		C-121.8,81.7-84.6,81.7-84,81.7z"/>
	<path fill="#FFFFFF" d="M-83.4,112.3c-4.3,0-9.6-2.8-12.6-7.6v32.6c4,1.4,9.1,1.7,13.7,1.7c17.4,0,32.8-10.7,38.6-26.7H-83.4z"/>
	<path fill="#FFFFFF" d="M-99,98.1c0-5.8,3.3-10.8,8.5-13.8H-123c-1.4,4-2.2,8.8-2.2,13.4c0,17.3,10.2,32.6,26.2,38.4
		C-99,136.1-99,98.7-99,98.1z"/>
	<path fill="#FFFFFF" d="M-68.2,97.1c0,5-3.9,9.2-8.4,12.2h32.9c1.4-6,2.1-8.7,2.1-13.3c0-17.5-11.1-32.4-26.6-38.1
		C-68.2,57.9-68.2,93.1-68.2,97.1z"/>
</g>
</svg>
