<?xml version="1.0" encoding="utf-8"?>
<!-- Generator: Adobe Illustrator 19.1.0, SVG Export Plug-In . SVG Version: 6.00 Build 0)  -->
<!DOCTYPE svg PUBLIC "-//W3C//DTD SVG 1.1//EN" "http://www.w3.org/Graphics/SVG/1.1/DTD/svg11.dtd">
<svg version="1.1" id="Layer_1" xmlns="http://www.w3.org/2000/svg" xmlns:xlink="http://www.w3.org/1999/xlink" x="0px" y="0px"
	 viewBox="-126 58.8 146.5 184.2" enable-background="new -126 58.8 146.5 184.2" xml:space="preserve">
<g>
	
		<linearGradient id="SVGID_1_" gradientUnits="userSpaceOnUse" x1="10.6391" y1="129.5768" x2="-83.4262" y2="208.9245" gradientTransform="matrix(1 0 0 -1 0 307.2)">
		<stop  offset="0" style="stop-color:#FFFFFF"/>
		<stop  offset="1" style="stop-color:#000000"/>
	</linearGradient>
	<path opacity="5.000000e-02" fill="url(#SVGID_1_)" enable-background="new    " d="M-120.3,87.2l35.5,38.8l-15.9,5.6l116.3,112
		c0,0,4.9,0.4,4.9-5.1s-0.1-92.7-0.1-92.7l0.2-10.4l-68.7-69.1v15.3l-16.4,9.7l-39.4-23.6l5.9,26.8L-120.3,87.2z"/>
	<g>
		<rect id="XMLID_145_" x="-86.1" y="95.8" fill="#FFFFFF" width="4" height="33"/>
		<path opacity="4.000000e-02" fill="#231F20" enable-background="new    " d="M-50.1,72.4c0.9,0.5,1.6,1,2.1,1.7
			c0-0.2,0-0.5,0.1-0.7c0.2-1.8,0.9-3.6,2.1-4.8c-0.6-0.4-1.3-0.9-2-1.2c-9.7-4.6-18.2,2.8-21.3,7.4l4.8,3.1
			C-64.2,77.8-57.9,68.6-50.1,72.4z"/>
		<path id="XMLID_1_" opacity="4.000000e-02" fill="#231F20" enable-background="new    " d="M-94.8,97.2c-0.3-0.1-9.5-0.1-16.4-4
			c-5.8-3.3-12.1-9.2-11.8-16.4c0.1-4.1,2.4-7.4,6.3-9.3c9.7-4.7,18.1,2.8,21.3,7.4l-4.6,3.2c-0.3-0.4-6.5-9.2-14.2-5.5
			c-2.1,1-3.1,2.4-3.1,4.5c-0.1,4.3,4,10.5,8.9,13.3c6.2,3.5,13.9,5.2,14,5.3L-94.8,97.2z"/>
		<path id="XMLID_125_" fill="#FFFFFF" d="M-71.7,98l-1.2-5.5c0.1,0,7.8-1.7,14-5.3c4.9-2.8,9-9,8.9-13.3c-0.1-2-1.1-3.5-3.1-4.5
			c-7.8-3.8-14.1,5.4-14.2,5.5l-4.8-3.1c3.1-4.6,11.6-12,21.3-7.4c3.9,1.9,6.2,5.2,6.3,9.3c0.2,7.1-5.9,15.1-11.7,18.4
			C-63.2,96.1-71.4,97.9-71.7,98z"/>
		<path id="XMLID_118_" fill="#FFFFFF" d="M-104.5,58.8c0,0-2.8,13.8-2.8,26.5c0,12.7,10,22.7,22.4,22.7s22.4-9.8,22.4-22.6
			c0-12.8-2.8-26.6-2.8-26.6L-104.5,58.8z"/>
		<path id="XMLID_116_" fill="#FFFFFF" d="M-69,131.6c-3.4-4.2-9.2-6.9-15.8-6.9s-12.4,2.8-15.8,6.9H-69z"/>
		<path id="XMLID_112_" fill="#FFFFFF" d="M-98.8,98c-0.3-0.1-8.6-1.9-15.5-5.8c-5.8-3.3-12-11.2-11.7-18.4c0.1-4.1,2.4-7.4,6.3-9.3
			c9.7-4.7,18.1,2.8,21.3,7.4l-4.6,3.2c-0.3-0.4-6.5-9.2-14.2-5.5c-2.1,1-3.1,2.4-3.1,4.5c-0.1,4.3,4,10.5,8.9,13.3
			c6.2,3.5,13.9,5.2,14,5.3L-98.8,98z"/>
	</g>
</g>
</svg>
