<?xml version="1.0" encoding="utf-8"?>
<!-- Generator: Adobe Illustrator 19.1.0, SVG Export Plug-In . SVG Version: 6.00 Build 0)  -->
<!DOCTYPE svg PUBLIC "-//W3C//DTD SVG 1.1//EN" "http://www.w3.org/Graphics/SVG/1.1/DTD/svg11.dtd">
<svg version="1.1" id="Layer_1" xmlns="http://www.w3.org/2000/svg" xmlns:xlink="http://www.w3.org/1999/xlink" x="0px" y="0px"
	 viewBox="0 0 168.2 173.7" enable-background="new 0 0 168.2 173.7" xml:space="preserve">
<g>
	<linearGradient id="SVGID_1_" gradientUnits="userSpaceOnUse" x1="159.7347" y1="115.7492" x2="55.0305" y2="22.4673">
		<stop  offset="0" style="stop-color:#FFFFFF"/>
		<stop  offset="1" style="stop-color:#000000"/>
	</linearGradient>
	<polygon opacity="5.000000e-02" fill="url(#SVGID_1_)" points="8.4,28.2 21.3,41.2 17.6,52 139.4,173.9 168.2,173.7 169.1,53.6 
		116.4,0.9 87.3,18.3 74.8,5.8 43.3,12.2 32,0.9 	"/>
	<g>
		<g>
			<path fill="#1AB5E9" d="M17.3,51.6V20.3l-8.6,8.5L0,19.8l19.4-19h13.3v50.8H17.3z"/>
			<path fill="#1AB5E9" d="M37.5,26.2C37.5,12.4,44.9,0,60.1,0s22.5,12.4,22.5,26.2s-7.4,26.3-22.5,26.3S37.5,40,37.5,26.2z
				 M67.2,26.2c0-8.6-2.2-12.6-7.1-12.6s-7.1,4-7.1,12.6s2.2,12.7,7.1,12.7S67.2,34.8,67.2,26.2z"/>
			<path fill="#1AB5E9" d="M100.9,51.6V20.3l-8.6,8.5l-8.7-9.1l19.4-19h13.3v50.8H100.9z"/>
		</g>
	</g>
	<g>
		<g>
			<rect x="17.3" y="27.6" fill="#0EA1D3" width="15.4" height="23.9"/>
			<path fill="#0EA1D3" d="M67.1,27.6c-0.2,7.6-2.5,11.3-7.1,11.3s-6.8-3.7-7.1-11.3H37.6c0.5,13.2,7.9,24.9,22.5,24.9
				s22-11.6,22.5-24.9H67.1z"/>
			<rect x="100.9" y="27.6" fill="#0EA1D3" width="15.4" height="23.9"/>
		</g>
	</g>
</g>
</svg>
