<?xml version="1.0" encoding="utf-8"?>
<!-- Generator: Adobe Illustrator 19.1.0, SVG Export Plug-In . SVG Version: 6.00 Build 0)  -->
<!DOCTYPE svg PUBLIC "-//W3C//DTD SVG 1.1//EN" "http://www.w3.org/Graphics/SVG/1.1/DTD/svg11.dtd">
<svg version="1.1" id="Layer_1" xmlns="http://www.w3.org/2000/svg" xmlns:xlink="http://www.w3.org/1999/xlink" x="0px" y="0px"
	 viewBox="-115 64.3 168.2 173.7" enable-background="new -115 64.3 168.2 173.7" xml:space="preserve">
<g>
	
		<linearGradient id="SVGID_1_" gradientUnits="userSpaceOnUse" x1="44.7284" y1="124.5438" x2="-59.9758" y2="217.8257" gradientTransform="matrix(1 0 0 -1 0 304.6)">
		<stop  offset="0" style="stop-color:#FFFFFF"/>
		<stop  offset="1" style="stop-color:#000000"/>
	</linearGradient>
	<polygon opacity="5.000000e-02" fill="url(#SVGID_1_)" enable-background="new    " points="-106.6,92.5 -93.7,105.5 -97.4,116.3 
		24.4,238.2 53.2,238 54.1,117.9 1.4,65.2 -27.7,82.6 -40.2,70.1 -71.7,76.5 -83,65.2 	"/>
	<g>
		<g>
			<path fill="#FFFFFF" d="M-97.7,115.9V84.6l-8.6,8.5l-8.7-9l19.4-19h13.3v50.8H-97.7z"/>
			<path fill="#FFFFFF" d="M-77.5,90.5c0-13.8,7.4-26.2,22.6-26.2s22.5,12.4,22.5,26.2s-7.4,26.3-22.5,26.3S-77.5,104.3-77.5,90.5z
				 M-47.8,90.5c0-8.6-2.2-12.6-7.1-12.6s-7.1,4-7.1,12.6s2.2,12.7,7.1,12.7S-47.8,99.1-47.8,90.5z"/>
			<path fill="#FFFFFF" d="M-14.1,115.9V84.6l-8.6,8.5l-8.7-9.1L-12,65H1.3v50.8L-14.1,115.9L-14.1,115.9z"/>
		</g>
	</g>
</g>
</svg>
