<?xml version="1.0" encoding="utf-8"?>
<!-- Generator: Adobe Illustrator 19.1.0, SVG Export Plug-In . SVG Version: 6.00 Build 0)  -->
<!DOCTYPE svg PUBLIC "-//W3C//DTD SVG 1.1//EN" "http://www.w3.org/Graphics/SVG/1.1/DTD/svg11.dtd">
<svg version="1.1" id="Layer_1" xmlns="http://www.w3.org/2000/svg" xmlns:xlink="http://www.w3.org/1999/xlink" x="0px" y="0px"
	 viewBox="0 0 148.9 190.7" enable-background="new 0 0 148.9 190.7" xml:space="preserve">
<g>
	<linearGradient id="SVGID_1_" gradientUnits="userSpaceOnUse" x1="144.3861" y1="149.3035" x2="39.7691" y2="42.0211">
		<stop  offset="0" style="stop-color:#FFFFFF"/>
		<stop  offset="1" style="stop-color:#000000"/>
	</linearGradient>
	<path opacity="5.000000e-02" fill="url(#SVGID_1_)" d="M66.5,12.5l81.9,81.6c0,0-0.2,86.4-0.2,89.8c0,3.6-0.4,6.1-5.3,6.1
		c-2.3,0-10.3,0-13.6,0L10.7,71.5L3.2,26.3l23.5-11.1L54,2.1L66.5,12.5z"/>
	<path fill="#74CBF1" d="M41,26.4c5.8,0,10.8,3.3,13,8.3l0-32.6C50,0.8,45.7,0,41.2,0C23.8,0,8.9,11,3.2,26.4
		C3.2,26.4,40.4,26.4,41,26.4z"/>
	<path fill="#16A4BB" d="M41.6,57c-4.3,0-9.6-2.8-12.6-7.6V82c4,1.4,9.1,1.7,13.7,1.7C60.1,83.7,75.5,73,81.3,57H41.6z"/>
	<path fill="#036EB5" d="M26,42.8C26,37,29.3,32,34.5,29H2c-1.4,4-2.2,8.8-2.2,13.4C-0.2,59.7,10,75,26,80.8
		C26,80.8,26,43.4,26,42.8z"/>
	<path fill="#16B2E8" d="M56.8,41.8c0,5-3.9,9.2-8.4,12.2h32.9c1.4-6,2.1-8.7,2.1-13.3c0-17.5-11.1-32.4-26.6-38.1
		C56.8,2.6,56.8,37.8,56.8,41.8z"/>
</g>
</svg>
