<?xml version="1.0" encoding="utf-8"?>
<!-- Generator: Adobe Illustrator 19.1.0, SVG Export Plug-In . SVG Version: 6.00 Build 0)  -->
<!DOCTYPE svg PUBLIC "-//W3C//DTD SVG 1.1//EN" "http://www.w3.org/Graphics/SVG/1.1/DTD/svg11.dtd">
<svg version="1.1" id="Layer_1" xmlns="http://www.w3.org/2000/svg" xmlns:xlink="http://www.w3.org/1999/xlink" x="0px" y="0px"
	 viewBox="0 0 747.7 259.1" style="enable-background:new 0 0 747.7 259.1;" xml:space="preserve">
<style type="text/css">
	.st0{fill:#C0C0C0;}
	.st1{fill:#FFFFFF;}
	.st2{fill:#868686;}
	.st3{fill:#676767;}
	.st4{fill:#FFC63C;}
	.st5{fill:#E4CA90;}
</style>
<g>
	<g>
		<path class="st0" d="M117.9,199.8H44.5l-0.8-7.4C42.7,183.7,0,86.2,0,64.7C0,20.8,35.7,21,79.5,21s79.5-0.2,79.5,43.7
			c0,20.6-39.8,117.2-40.6,127.4L117.9,199.8z"/>
		<path class="st1" d="M79.2,196.5c-2.6,0-4.8-2.1-4.8-4.8V73.2c0-2.6,2.1-4.8,4.8-4.8s4.8,2.1,4.8,4.8v118.5
			C84,194.4,81.9,196.5,79.2,196.5z"/>
		<path class="st2" d="M58.2,245c3.5,8.2,12.4,14.1,22.8,14.1s19.2-5.8,22.8-14.1H58.2z"/>
		<path class="st3" d="M105.6,245.3H56.2c-12.5,0-15.1-7.9-15.1-20.4V183h79.7v41.9C120.8,237.4,118.1,245.3,105.6,245.3z"/>
		<path class="st2" d="M41,182.3l64.6,63.7H53.4c0,0-12.2-0.6-12.2-12.1C41.2,222.4,41,182.3,41,182.3z"/>
		<path class="st1" d="M105.5,135.4c-0.9,0-1.7-0.2-2.5-0.7l-50.2-31.1c-2.2-1.4-2.9-4.3-1.5-6.6c1.4-2.2,4.3-2.9,6.6-1.5l50.2,31.1
			c2.2,1.4,2.9,4.3,1.5,6.6C108.7,134.6,107.1,135.4,105.5,135.4z"/>
		<path class="st1" d="M56.8,137.5c-1.5,0-2.9-0.7-3.8-1.9c-1.6-2.1-1.1-5.1,1-6.7l47.4-35.2c2.1-1.6,5.1-1.1,6.7,1
			c1.6,2.1,1.1,5.1-1,6.7l-47.4,35.2C58.7,137.2,57.7,137.5,56.8,137.5z"/>
	</g>
	<g>
		<path class="st4" d="M418.6,177.5h-73.3l-0.8-7.4c-1-8.7-9-20-17.5-32c-12.3-17.3-26.2-36.9-26.2-58.5c0-43.9,35.7-79.5,79.5-79.5
			s79.5,35.7,79.5,79.5c0,20.6-12.4,39.1-23.4,55.4c-8.5,12.6-16.4,24.5-17.2,34.8L418.6,177.5z"/>
		<path class="st2" d="M358.9,222.6c3.5,8.2,12.4,14.1,22.8,14.1c10.4,0,19.2-5.8,22.8-14.1L358.9,222.6z"/>
		<path class="st1" d="M383.5,173.4c-0.8,0-1.6-0.1-2.4-0.5c-3.2-1.3-4.8-5-3.5-8.2l21.1-52c1.3-3.2,5-4.8,8.2-3.5
			c3.2,1.3,4.8,5,3.5,8.2l-21.1,52C388.3,171.9,386,173.4,383.5,173.4z"/>
		<path class="st1" d="M382.7,173.4c-2.5,0-4.8-1.5-5.8-3.9l-21.1-52c-1.3-3.2,0.2-6.9,3.5-8.2c3.2-1.3,6.9,0.2,8.2,3.5l21.1,52
			c1.3,3.2-0.2,6.9-3.5,8.2C384.3,173.3,383.5,173.4,382.7,173.4z"/>
		<path class="st3" d="M406.3,223H357c-12.5,0-15.1-7.9-15.1-20.4v-41.9h79.7v41.9C421.6,215.1,418.8,223,406.3,223z"/>
		<path class="st2" d="M341.7,158.6l64.6,62.4h-52.2c0,0-12.2,0.1-12.2-11.4S341.7,158.6,341.7,158.6z"/>
	</g>
	<g>
		<path class="st5" d="M655.5,161.9c-5.2,0-9.7-3.8-10.4-9l-3.6-25.3c-0.8-5.8,3.2-11.1,8.9-11.9c5.8-0.8,11.1,3.2,11.9,8.9
			l3.6,25.3c0.8,5.8-3.2,11.1-8.9,11.9C656.5,161.9,656,161.9,655.5,161.9z"/>
		<path class="st3" d="M669.9,242.1c2.7,6.2,9.4,10.6,17.2,10.6c7.8,0,14.5-4.4,17.2-10.6H669.9z"/>
		<g>
			<path class="st5" d="M716.9,161.9c-0.5,0-1,0-1.5-0.1c-5.8-0.8-9.8-6.2-8.9-11.9l4.5-31.6c0.8-5.8,6.2-9.8,11.9-8.9
				c5.8,0.8,9.8,6.2,8.9,11.9l-4.5,31.6C726.6,158.1,722.1,161.9,716.9,161.9z"/>
			<path class="st5" d="M633.4,134.5c-5.2,0-9.7-3.8-10.4-9.1c-0.8-5.8,3.2-11.1,9-11.9l103.8-14.4c5.8-0.8,11.1,3.2,11.9,9
				c0.8,5.8-3.2,11.1-9,11.9l-103.8,14.4C634.3,134.5,633.8,134.5,633.4,134.5z"/>
			<path class="st5" d="M633.4,106.9c-5.2,0-9.7-3.8-10.4-9.1c-0.8-5.8,3.2-11.1,9-11.9l103.8-14.4c5.8-0.8,11.1,3.2,11.9,9
				c0.8,5.8-3.2,11.1-9,11.9l-103.8,14.4C634.3,106.9,633.8,106.9,633.4,106.9z"/>
			<path class="st5" d="M633.4,79.3c-5.2,0-9.7-3.8-10.4-9.1c-0.8-5.8,3.2-11.1,9-11.9l103.8-14.4c5.8-0.8,11.1,3.2,11.9,9
				c0.8,5.8-3.2,11.1-9,11.9L634.8,79.2C634.3,79.3,633.8,79.3,633.4,79.3z"/>
			<path class="st5" d="M647.4,49.8c-5.2,0-9.7-3.8-10.4-9.1c-0.8-5.8,3.2-11.1,9-11.9l75.8-10.5c5.8-0.8,11.1,3.2,11.9,9
				c0.8,5.8-3.2,11.1-9,11.9l-75.8,10.5C648.4,49.8,647.9,49.8,647.4,49.8z"/>
			<path class="st2" d="M705.7,242.3h-37.3c-9.4,0-11.4-6-11.4-15.4v-26.1h60.2v26.1C717.2,236.4,715.1,242.3,705.7,242.3z"/>
			<path class="st2" d="M656.9,200.9l-13.7-20.2c-4.4-6.5-6.8-14.2-6.8-22.1v-14.3h99.3v14.2c0,7-1.9,13.8-5.4,19.8l-13.1,22.5
				L656.9,200.9z"/>
			<path class="st3" d="M636.3,144.3v0.7c12,12,24.1,24.1,36.1,36.1l19.7,19.7h0c8.4,8.4,16.7,11.2,25.1,19.6v-19.6l13.1-22.5
				c3.5-6,5.4-12.9,5.4-19.8v-14.2H636.3z"/>
		</g>
	</g>
</g>
</svg>
